<svg width="38" height="38" viewBox="0 0 38 38" fill="none" xmlns="http://www.w3.org/2000/svg">
<g filter="url(#filter0_i_19658_1862)">
<path d="M28 0H10C6.68629 0 4 2.68629 4 6V24C4 27.3137 6.68629 30 10 30H28C31.3137 30 34 27.3137 34 24V6C34 2.68629 31.3137 0 28 0Z" fill="#313131"/>
</g>
<g filter="url(#filter1_i_19658_1862)">
<path fill-rule="evenodd" clip-rule="evenodd" d="M20.4303 16.9675C21.7917 16.4052 22.7498 15.0645 22.7498 13.5C22.7498 11.4289 21.0708 9.75 18.9998 9.75C16.9287 9.75 15.2498 11.4289 15.2498 13.5C15.2498 15.0645 16.2078 16.4052 17.5693 16.9675C16.175 17.1998 14.8924 17.7657 13.8083 18.5802L15.1899 20.419C16.2513 19.6217 17.5688 19.1496 19 19.1496C20.4311 19.1496 21.7485 19.6217 22.8098 20.419L24.1915 18.5802C23.1074 17.7657 21.8246 17.1997 20.4303 16.9675Z" fill="white"/>
</g>
<defs>
<filter id="filter0_i_19658_1862" x="4" y="0" width="30" height="34" filterUnits="userSpaceOnUse" color-interpolation-filters="sRGB">
<feFlood flood-opacity="0" result="BackgroundImageFix"/>
<feBlend mode="normal" in="SourceGraphic" in2="BackgroundImageFix" result="shape"/>
<feColorMatrix in="SourceAlpha" type="matrix" values="0 0 0 0 0 0 0 0 0 0 0 0 0 0 0 0 0 0 127 0" result="hardAlpha"/>
<feOffset dy="4"/>
<feGaussianBlur stdDeviation="2"/>
<feComposite in2="hardAlpha" operator="arithmetic" k2="-1" k3="1"/>
<feColorMatrix type="matrix" values="0 0 0 0 0 0 0 0 0 0 0 0 0 0 0 0 0 0 0.25 0"/>
<feBlend mode="normal" in2="shape" result="effect1_innerShadow_19658_1862"/>
</filter>
<filter id="filter1_i_19658_1862" x="13.8083" y="9.75" width="10.3831" height="14.669" filterUnits="userSpaceOnUse" color-interpolation-filters="sRGB">
<feFlood flood-opacity="0" result="BackgroundImageFix"/>
<feBlend mode="normal" in="SourceGraphic" in2="BackgroundImageFix" result="shape"/>
<feColorMatrix in="SourceAlpha" type="matrix" values="0 0 0 0 0 0 0 0 0 0 0 0 0 0 0 0 0 0 127 0" result="hardAlpha"/>
<feOffset dy="4"/>
<feGaussianBlur stdDeviation="2"/>
<feComposite in2="hardAlpha" operator="arithmetic" k2="-1" k3="1"/>
<feColorMatrix type="matrix" values="0 0 0 0 0 0 0 0 0 0 0 0 0 0 0 0 0 0 0.25 0"/>
<feBlend mode="normal" in2="shape" result="effect1_innerShadow_19658_1862"/>
</filter>
</defs>
</svg>
